REM DIRINDEX 1\2,1\3,1\4
REM DIRNAME cjc105,folder01,folder02,folder03
TITLE ""
FILE "DISC2Track20.mp3" MP3
  TRACK 01 AUDIO
    TITLE "0:"
    INDEX 01 00:00:00
  TRACK 02 AUDIO
    TITLE "4:cjc105_2844"
    INDEX 01 00:00:17
  TRACK 03 AUDIO
    TITLE "0:"
    INDEX 01 00:04:13
  TRACK 04 AUDIO
    TITLE "4:cjc105_2845"
    INDEX 01 00:04:56
  TRACK 05 AUDIO
    TITLE "0:"
    INDEX 01 00:08:13
  TRACK 06 AUDIO
    TITLE "2:cjc105_2846"
    INDEX 01 00:08:66
  TRACK 07 AUDIO
    TITLE "3:cjc105_2847"
    INDEX 01 00:10:21
  TRACK 08 AUDIO
    TITLE "0:"
    INDEX 01 00:11:37
  TRACK 09 AUDIO
    TITLE "2:cjc105_2848"
    INDEX 01 00:11:48
  TRACK 10 AUDIO
    TITLE "3:cjc105_2849"
    INDEX 01 00:12:71
  TRACK 11 AUDIO
    TITLE "0:"
    INDEX 01 00:14:19
  TRACK 12 AUDIO
    TITLE "2:cjc105_2850"
    INDEX 01 00:14:35
  TRACK 13 AUDIO
    TITLE "3:cjc105_2851"
    INDEX 01 00:16:00
  TRACK 14 AUDIO
    TITLE "0:"
    INDEX 01 00:17:63
  TRACK 15 AUDIO
    TITLE "2:cjc105_2852"
    INDEX 01 00:17:74
  TRACK 16 AUDIO
    TITLE "3:cjc105_2853"
    INDEX 01 00:19:28
  TRACK 17 AUDIO
    TITLE "0:"
    INDEX 01 00:20:73
  TRACK 18 AUDIO
    TITLE "2:cjc105_2854"
    INDEX 01 00:21:17
  TRACK 19 AUDIO
    TITLE "3:cjc105_2855"
    INDEX 01 00:22:30
  TRACK 20 AUDIO
    TITLE "0:"
    INDEX 01 00:23:53
  TRACK 21 AUDIO
    TITLE "2:cjc105_2856"
    INDEX 01 00:23:65
  TRACK 22 AUDIO
    TITLE "3:cjc105_2857"
    INDEX 01 00:24:61
  TRACK 23 AUDIO
    TITLE "0:"
    INDEX 01 00:26:07
  TRACK 24 AUDIO
    TITLE "2:cjc105_2858"
    INDEX 01 00:26:22
  TRACK 25 AUDIO
    TITLE "3:cjc105_2859"
    INDEX 01 00:27:38
  TRACK 26 AUDIO
    TITLE "0:"
    INDEX 01 00:29:19
  TRACK 27 AUDIO
    TITLE "2:cjc105_2860"
    INDEX 01 00:29:33
  TRACK 28 AUDIO
    TITLE "3:cjc105_2861"
    INDEX 01 00:30:57
  TRACK 29 AUDIO
    TITLE "0:"
    INDEX 01 00:31:67
  TRACK 30 AUDIO
    TITLE "2:cjc105_2862"
    INDEX 01 00:32:03
  TRACK 31 AUDIO
    TITLE "3:cjc105_2863"
    INDEX 01 00:33:38
  TRACK 32 AUDIO
    TITLE "0:"
    INDEX 01 00:35:04
  TRACK 33 AUDIO
    TITLE "2:cjc105_2864"
    INDEX 01 00:35:15
  TRACK 34 AUDIO
    TITLE "3:cjc105_2865"
    INDEX 01 00:36:58
  TRACK 35 AUDIO
    TITLE "0:"
    INDEX 01 00:38:18
  TRACK 36 AUDIO
    TITLE "2:cjc105_2866"
    INDEX 01 00:38:33
  TRACK 37 AUDIO
    TITLE "3:cjc105_2867"
    INDEX 01 00:39:72
  TRACK 38 AUDIO
    TITLE "0:"
    INDEX 01 00:41:55
  TRACK 39 AUDIO
    TITLE "2:cjc105_2868"
    INDEX 01 00:41:71
  TRACK 40 AUDIO
    TITLE "3:cjc105_2869"
    INDEX 01 00:43:17
  TRACK 41 AUDIO
    TITLE "0:"
    INDEX 01 00:44:28
  TRACK 42 AUDIO
    TITLE "2:cjc105_2870"
    INDEX 01 00:44:42
  TRACK 43 AUDIO
    TITLE "3:cjc105_2871"
    INDEX 01 00:46:23
  TRACK 44 AUDIO
    TITLE "0:"
    INDEX 01 00:48:06
  TRACK 45 AUDIO
    TITLE "2:cjc105_2872"
    INDEX 01 00:48:18
  TRACK 46 AUDIO
    TITLE "3:cjc105_2873"
    INDEX 01 00:49:37
  TRACK 47 AUDIO
    TITLE "0:"
    INDEX 01 00:50:66
  TRACK 48 AUDIO
    TITLE "2:cjc105_2874"
    INDEX 01 00:51:07
  TRACK 49 AUDIO
    TITLE "3:cjc105_2875"
    INDEX 01 00:52:04
  TRACK 50 AUDIO
    TITLE "0:"
    INDEX 01 00:53:49
  TRACK 51 AUDIO
    TITLE "2:cjc105_2876"
    INDEX 01 00:53:64
  TRACK 52 AUDIO
    TITLE "3:cjc105_2877"
    INDEX 01 00:55:08
  TRACK 53 AUDIO
    TITLE "0:"
    INDEX 01 00:56:33
  TRACK 54 AUDIO
    TITLE "2:cjc105_2878"
    INDEX 01 00:56:49
  TRACK 55 AUDIO
    TITLE "3:cjc105_2879"
    INDEX 01 00:57:60
  TRACK 56 AUDIO
    TITLE "0:"
    INDEX 01 00:59:12
  TRACK 57 AUDIO
    TITLE "2:cjc105_2880"
    INDEX 01 00:59:28
  TRACK 58 AUDIO
    TITLE "3:cjc105_2881"
    INDEX 01 01:00:41
  TRACK 59 AUDIO
    TITLE "0:"
    INDEX 01 01:01:54
  TRACK 60 AUDIO
    TITLE "2:cjc105_2882"
    INDEX 01 01:01:70
  TRACK 61 AUDIO
    TITLE "3:cjc105_2883"
    INDEX 01 01:03:31
  TRACK 62 AUDIO
    TITLE "0:"
    INDEX 01 01:04:72
  TRACK 63 AUDIO
    TITLE "2:cjc105_2884"
    INDEX 01 01:05:11
  TRACK 64 AUDIO
    TITLE "3:cjc105_2885"
    INDEX 01 01:06:16
  TRACK 65 AUDIO
    TITLE "0:"
    INDEX 01 01:07:27
  TRACK 66 AUDIO
    TITLE "2:cjc105_2886"
    INDEX 01 01:07:35
  TRACK 67 AUDIO
    TITLE "3:cjc105_2887"
    INDEX 01 01:09:34
  TRACK 68 AUDIO
    TITLE "0:"
    INDEX 01 01:10:73
  TRACK 69 AUDIO
    TITLE "2:cjc105_2888"
    INDEX 01 01:11:11
  TRACK 70 AUDIO
    TITLE "3:cjc105_2889"
    INDEX 01 01:12:32
  TRACK 71 AUDIO
    TITLE "0:"
    INDEX 01 01:13:53
  TRACK 72 AUDIO
    TITLE "2:cjc105_2890"
    INDEX 01 01:13:67
  TRACK 73 AUDIO
    TITLE "3:cjc105_2891"
    INDEX 01 01:15:35
  TRACK 74 AUDIO
    TITLE "0:"
    INDEX 01 01:17:22
  TRACK 75 AUDIO
    TITLE "2:cjc105_2892"
    INDEX 01 01:17:35
  TRACK 76 AUDIO
    TITLE "3:cjc105_2893"
    INDEX 01 01:18:25
  TRACK 77 AUDIO
    TITLE "0:"
    INDEX 01 01:19:13
  TRACK 78 AUDIO
    TITLE "2:cjc105_2894"
    INDEX 01 01:19:25
  TRACK 79 AUDIO
    TITLE "3:cjc105_2895"
    INDEX 01 01:20:34
  TRACK 80 AUDIO
    TITLE "0:"
    INDEX 01 01:21:37
  TRACK 81 AUDIO
    TITLE "2:cjc105_2896"
    INDEX 01 01:21:53
  TRACK 82 AUDIO
    TITLE "3:cjc105_2897"
    INDEX 01 01:23:03
  TRACK 83 AUDIO
    TITLE "0:"
    INDEX 01 01:24:28
  TRACK 84 AUDIO
    TITLE "2:cjc105_2898"
    INDEX 01 01:24:43
  TRACK 85 AUDIO
    TITLE "3:cjc105_2899"
    INDEX 01 01:25:60
  TRACK 86 AUDIO
    TITLE "0:"
    INDEX 01 01:27:24
  TRACK 87 AUDIO
    TITLE "2:cjc105_2900"
    INDEX 01 01:27:42
  TRACK 88 AUDIO
    TITLE "3:cjc105_2901"
    INDEX 01 01:29:07
  TRACK 89 AUDIO
    TITLE "0:"
    INDEX 01 01:30:32
  TRACK 90 AUDIO
    TITLE "2:cjc105_2902"
    INDEX 01 01:30:46
  TRACK 91 AUDIO
    TITLE "3:cjc105_2903"
    INDEX 01 01:31:55
  TRACK 92 AUDIO
    TITLE "0:"
    INDEX 01 01:32:62
  TRACK 93 AUDIO
    TITLE "2:cjc105_2904"
    INDEX 01 01:33:01
  TRACK 94 AUDIO
    TITLE "3:cjc105_2905"
    INDEX 01 01:34:05
  TRACK 95 AUDIO
    TITLE "0:"
    INDEX 01 01:35:27
  TRACK 96 AUDIO
    TITLE "2:cjc105_2906"
    INDEX 01 01:35:41
  TRACK 97 AUDIO
    TITLE "3:cjc105_2907"
    INDEX 01 01:36:31
  TRACK 98 AUDIO
    TITLE "0:"
    INDEX 01 01:37:22
  TRACK 99 AUDIO
    TITLE "2:cjc105_2908"
    INDEX 01 01:37:36
  TRACK 100 AUDIO
    TITLE "3:cjc105_2909"
    INDEX 01 01:40:33
  TRACK 101 AUDIO
    TITLE "0:"
    INDEX 01 01:41:40
  TRACK 102 AUDIO
    TITLE "2:cjc105_2910"
    INDEX 01 01:41:54
  TRACK 103 AUDIO
    TITLE "3:cjc105_2911"
    INDEX 01 01:43:05
  TRACK 104 AUDIO
    TITLE "0:"
    INDEX 01 01:44:13
  TRACK 105 AUDIO
    TITLE "2:cjc105_2912"
    INDEX 01 01:44:24
  TRACK 106 AUDIO
    TITLE "3:cjc105_2913"
    INDEX 01 01:45:20
  TRACK 107 AUDIO
    TITLE "0:"
    INDEX 01 01:46:31
  TRACK 108 AUDIO
    TITLE "2:cjc105_2914"
    INDEX 01 01:46:45
  TRACK 109 AUDIO
    TITLE "3:cjc105_2915"
    INDEX 01 01:47:56
  TRACK 110 AUDIO
    TITLE "0:"
    INDEX 01 01:48:65
  TRACK 111 AUDIO
    TITLE "2:cjc105_2916"
    INDEX 01 01:49:02
  TRACK 112 AUDIO
    TITLE "3:cjc105_2917"
    INDEX 01 01:50:41
  TRACK 113 AUDIO
    TITLE "0:"
    INDEX 01 01:51:40
  TRACK 114 AUDIO
    TITLE "2:cjc105_2918"
    INDEX 01 01:51:52
  TRACK 115 AUDIO
    TITLE "3:cjc105_2919"
    INDEX 01 01:52:53
  TRACK 116 AUDIO
    TITLE "0:"
    INDEX 01 01:54:03
  TRACK 117 AUDIO
    TITLE "2:cjc105_2920"
    INDEX 01 01:54:15
  TRACK 118 AUDIO
    TITLE "3:cjc105_2921"
    INDEX 01 01:55:73
  TRACK 119 AUDIO
    TITLE "0:"
    INDEX 01 01:58:19
  TRACK 120 AUDIO
    TITLE "2:cjc105_2922"
    INDEX 01 01:58:30
  TRACK 121 AUDIO
    TITLE "3:cjc105_2923"
    INDEX 01 01:59:26
  TRACK 122 AUDIO
    TITLE "0:"
    INDEX 01 02:00:25
  TRACK 123 AUDIO
    TITLE "2:cjc105_2924"
    INDEX 01 02:00:35
  TRACK 124 AUDIO
    TITLE "3:cjc105_2925"
    INDEX 01 02:01:48
  TRACK 125 AUDIO
    TITLE "0:"
    INDEX 01 02:02:52
  TRACK 126 AUDIO
    TITLE "2:cjc105_2926"
    INDEX 01 02:02:66
  TRACK 127 AUDIO
    TITLE "3:cjc105_2927"
    INDEX 01 02:05:48
  TRACK 128 AUDIO
    TITLE "0:"
    INDEX 01 02:06:57
  TRACK 129 AUDIO
    TITLE "2:cjc105_2928"
    INDEX 01 02:06:71
  TRACK 130 AUDIO
    TITLE "3:cjc105_2929"
    INDEX 01 02:08:35
  TRACK 131 AUDIO
    TITLE "0:"
    INDEX 01 02:10:02
  TRACK 132 AUDIO
    TITLE "2:cjc105_2930"
    INDEX 01 02:10:18
  TRACK 133 AUDIO
    TITLE "3:cjc105_2931"
    INDEX 01 02:11:14
  TRACK 134 AUDIO
    TITLE "0:"
    INDEX 01 02:12:15
  TRACK 135 AUDIO
    TITLE "2:cjc105_2932"
    INDEX 01 02:12:31
  TRACK 136 AUDIO
    TITLE "3:cjc105_2933"
    INDEX 01 02:13:50
  TRACK 137 AUDIO
    TITLE "0:"
    INDEX 01 02:14:61
  TRACK 138 AUDIO
    TITLE "2:cjc105_2934"
    INDEX 01 02:14:73
  TRACK 139 AUDIO
    TITLE "3:cjc105_2935"
    INDEX 01 02:15:74
  TRACK 140 AUDIO
    TITLE "0:"
    INDEX 01 02:17:12
  TRACK 141 AUDIO
    TITLE "2:cjc105_2936"
    INDEX 01 02:17:26
  TRACK 142 AUDIO
    TITLE "3:cjc105_2937"
    INDEX 01 02:18:51
  TRACK 143 AUDIO
    TITLE "0:"
    INDEX 01 02:20:34
  TRACK 144 AUDIO
    TITLE "2:cjc105_2938"
    INDEX 01 02:20:54
  TRACK 145 AUDIO
    TITLE "3:cjc105_2939"
    INDEX 01 02:22:15
  TRACK 146 AUDIO
    TITLE "0:"
    INDEX 01 02:23:58
  TRACK 147 AUDIO
    TITLE "2:cjc105_2940"
    INDEX 01 02:23:70
  TRACK 148 AUDIO
    TITLE "3:cjc105_2941"
    INDEX 01 02:25:39
  TRACK 149 AUDIO
    TITLE "0:"
    INDEX 01 02:27:03
  TRACK 150 AUDIO
    TITLE "2:cjc105_2942"
    INDEX 01 02:27:18
  TRACK 151 AUDIO
    TITLE "3:cjc105_2943"
    INDEX 01 02:28:49
  TRACK 152 AUDIO
    TITLE "0:"
    INDEX 01 02:30:19
  TRACK 153 AUDIO
    TITLE "2:cjc105_2944"
    INDEX 01 02:30:34
  TRACK 154 AUDIO
    TITLE "3:cjc105_2945"
    INDEX 01 02:31:38
  TRACK 155 AUDIO
    TITLE "0:"
    INDEX 01 02:32:63
  TRACK 156 AUDIO
    TITLE "2:cjc105_2946"
    INDEX 01 02:33:01
  TRACK 157 AUDIO
    TITLE "3:cjc105_2947"
    INDEX 01 02:34:20
  TRACK 158 AUDIO
    TITLE "0:"
    INDEX 01 02:35:28
  TRACK 159 AUDIO
    TITLE "2:cjc105_2948"
    INDEX 01 02:35:38
  TRACK 160 AUDIO
    TITLE "3:cjc105_2949"
    INDEX 01 02:36:59
  TRACK 161 AUDIO
    TITLE "0:"
    INDEX 01 02:38:06
  TRACK 162 AUDIO
    TITLE "2:cjc105_2950"
    INDEX 01 02:38:16
  TRACK 163 AUDIO
    TITLE "3:cjc105_2951"
    INDEX 01 02:39:20
  TRACK 164 AUDIO
    TITLE "0:"
    INDEX 01 02:40:27
  TRACK 165 AUDIO
    TITLE "2:cjc105_2952"
    INDEX 01 02:40:43
  TRACK 166 AUDIO
    TITLE "3:cjc105_2953"
    INDEX 01 02:42:26
  TRACK 167 AUDIO
    TITLE "0:"
    INDEX 01 02:43:63
  TRACK 168 AUDIO
    TITLE "2:cjc105_2954"
    INDEX 01 02:44:03
  TRACK 169 AUDIO
    TITLE "3:cjc105_2955"
    INDEX 01 02:45:01
  TRACK 170 AUDIO
    TITLE "0:"
    INDEX 01 02:46:06
  TRACK 171 AUDIO
    TITLE "2:cjc105_2956"
    INDEX 01 02:46:20
  TRACK 172 AUDIO
    TITLE "3:cjc105_2957"
    INDEX 01 02:47:49
  TRACK 173 AUDIO
    TITLE "0:"
    INDEX 01 02:48:64
  TRACK 174 AUDIO
    TITLE "2:cjc105_2958"
    INDEX 01 02:49:00
  TRACK 175 AUDIO
    TITLE "3:cjc105_2959"
    INDEX 01 02:50:14
  TRACK 176 AUDIO
    TITLE "0:"
    INDEX 01 02:51:48
  TRACK 177 AUDIO
    TITLE "2:cjc105_2960"
    INDEX 01 02:51:60
  TRACK 178 AUDIO
    TITLE "3:cjc105_2961"
    INDEX 01 02:52:67
  TRACK 179 AUDIO
    TITLE "0:"
    INDEX 01 02:54:09
  TRACK 180 AUDIO
    TITLE "2:cjc105_2962"
    INDEX 01 02:54:21
  TRACK 181 AUDIO
    TITLE "3:cjc105_2963"
    INDEX 01 02:55:34
  TRACK 182 AUDIO
    TITLE "0:"
    INDEX 01 02:56:59
  TRACK 183 AUDIO
    TITLE "2:cjc105_2964"
    INDEX 01 02:56:73
  TRACK 184 AUDIO
    TITLE "3:cjc105_2965"
    INDEX 01 02:58:42
  TRACK 185 AUDIO
    TITLE "0:"
    INDEX 01 02:59:62
  TRACK 186 AUDIO
    TITLE "2:cjc105_2966"
    INDEX 01 03:00:00
  TRACK 187 AUDIO
    TITLE "3:cjc105_2967"
    INDEX 01 03:01:11
  TRACK 188 AUDIO
    TITLE "0:"
    INDEX 01 03:02:34
  TRACK 189 AUDIO
    TITLE "2:cjc105_2968"
    INDEX 01 03:02:48
  TRACK 190 AUDIO
    TITLE "3:cjc105_2969"
    INDEX 01 03:04:24
  TRACK 191 AUDIO
    TITLE "0:"
    INDEX 01 03:05:45
  TRACK 192 AUDIO
    TITLE "2:cjc105_2970"
    INDEX 01 03:05:56
  TRACK 193 AUDIO
    TITLE "3:cjc105_2971"
    INDEX 01 03:06:67
  TRACK 194 AUDIO
    TITLE "0:"
    INDEX 01 03:08:12
  TRACK 195 AUDIO
    TITLE "2:cjc105_2972"
    INDEX 01 03:08:23
  TRACK 196 AUDIO
    TITLE "3:cjc105_2973"
    INDEX 01 03:09:38
  TRACK 197 AUDIO
    TITLE "0:"
    INDEX 01 03:10:50
